<?xml version="1.0" encoding="UTF-8"?>
<svg version="1.1" xmlns="http://www.w3.org/2000/svg" width="512" height="512">
<path d="M0 0 C11.010381 9.10769763 19.71778847 19.07863311 26 32 C26.45375 32.91265625 26.9075 33.8253125 27.375 34.765625 C31.47743696 43.70307695 32.1754252 50.66074283 34 61 C46.87 61 59.74 61 73 61 C73.66 56.71 74.32 52.42 75 48 C81.63897767 25.00068452 95.25787618 5.96677502 116.2890625 -5.84765625 C136.85714062 -16.58775026 160.94934864 -19.99059583 183.44140625 -13.25 C184.61574219 -12.8375 185.79007812 -12.425 187 -12 C188.18464844 -11.5875 189.36929687 -11.175 190.58984375 -10.75 C212.26477188 -2.31953071 228.16898511 14.52358864 237.74511719 35.46533203 C241.20307826 43.42855779 242.83492809 51.44201727 244 60 C244.67579102 60.0093457 245.35158203 60.01869141 246.04785156 60.02832031 C249.1159711 60.08207301 252.18257387 60.16570992 255.25 60.25 C256.84521484 60.27126953 256.84521484 60.27126953 258.47265625 60.29296875 C259.49746094 60.32519531 260.52226562 60.35742188 261.578125 60.390625 C262.52075195 60.41157227 263.46337891 60.43251953 264.43457031 60.45410156 C267.70390389 61.14978389 268.91983556 62.43786087 271 65 C271.53125 67 271.53125 67 271.5 69 C271.51546875 69.99 271.51546875 69.99 271.53125 71 C270.75719159 73.91410224 269.30124168 75.09058346 267 77 C264.43457031 77.54589844 264.43457031 77.54589844 261.578125 77.609375 C260.55332031 77.64160156 259.52851563 77.67382812 258.47265625 77.70703125 C257.40917969 77.72121094 256.34570312 77.73539062 255.25 77.75 C254.17105469 77.77964844 253.09210938 77.80929687 251.98046875 77.83984375 C249.32023756 77.91046936 246.66087898 77.96320196 244 78 C243.84144531 78.93199219 243.68289063 79.86398437 243.51953125 80.82421875 C240.18908388 99.02207759 233.30542792 114.07716237 221 128 C220.47019531 128.62519531 219.94039063 129.25039063 219.39453125 129.89453125 C210.02442005 140.17997465 197.01636367 146.69436879 184 151 C183.02546875 151.33902344 182.0509375 151.67804688 181.046875 152.02734375 C164.95619662 156.69536141 145.71507043 155.52011255 130 150 C128.81535156 149.5875 127.63070313 149.175 126.41015625 148.75 C106.03504408 140.82509449 89.47460256 124.96616841 80.14453125 105.23046875 C76.4017951 96.70522382 73 86.43297339 73 77 C60.13 77 47.26 77 34 77 C33.01 82.61 32.02 88.22 31 94 C29.462301 98.23906211 27.98337831 102.01070499 26 106 C25.54625 106.93328125 25.0925 107.8665625 24.625 108.828125 C14.40816735 128.70652766 -2.65708264 142.72622334 -23.57421875 150.29296875 C-41.66341752 156.0064329 -62.01498267 156.31745943 -80 150 C-81.18464844 149.5875 -82.36929688 149.175 -83.58984375 148.75 C-106.34742817 139.89843125 -122.09364836 122.18582644 -131.78515625 100.171875 C-134.55152579 92.94907094 -135.96650112 85.64220271 -137 78 C-137.64549805 77.9906543 -138.29099609 77.98130859 -138.95605469 77.97167969 C-141.88813944 77.91790899 -144.81864008 77.8342766 -147.75 77.75 C-149.27367187 77.72873047 -149.27367187 77.72873047 -150.828125 77.70703125 C-158.314875 77.46075658 -158.314875 77.46075658 -161.671875 75.203125 C-163.06270108 72.89598998 -163.54174495 71.6716771 -163.5 69 C-163.51546875 68.01 -163.51546875 68.01 -163.53125 67 C-162.68325629 63.80755308 -161.77863745 62.86867431 -159 61 C-155.25719263 60.36090953 -151.54084136 60.30291784 -147.75 60.25 C-146.203125 60.20552734 -146.203125 60.20552734 -144.625 60.16015625 C-142.08325505 60.08955222 -139.54242217 60.03680991 -137 60 C-136.84144531 59.06800781 -136.68289062 58.13601562 -136.51953125 57.17578125 C-133.31291264 39.65453369 -126.81643158 24.48835497 -115 11 C-114.41863281 10.32324219 -113.83726563 9.64648438 -113.23828125 8.94921875 C-103.42387591 -1.67418312 -90.57763097 -8.50870941 -77 -13 C-75.53820312 -13.50853516 -75.53820312 -13.50853516 -74.046875 -14.02734375 C-49.35297302 -21.19121638 -20.41857015 -15.16400105 0 0 Z M-104.53515625 23.8515625 C-115.73138951 38.01975083 -122.33339471 55.81734493 -121 74 C-118.25691784 93.65515566 -109.88322236 111.92785204 -93.8125 124.125 C-77.51734569 135.43184177 -59.63151965 140.51997077 -39.91943359 137.70263672 C-22.53245021 134.50101871 -6.59248763 125.03575526 4.0859375 110.9296875 C15.26829247 93.81383806 20.61762588 75.02126092 16.46142578 54.73095703 C14.00473246 44.02358214 9.30411201 34.93082535 3 26 C2.55140625 25.36449219 2.1028125 24.72898437 1.640625 24.07421875 C-8.55853347 11.02529541 -25.8339719 2.39856484 -42 0 C-65.85735098 -2.3801168 -88.42379306 5.72938203 -104.53515625 23.8515625 Z M106.30859375 23.04296875 C93.93942051 38.1221009 87.75459138 55.41311894 89 75 C90.24868653 84.37006508 92.51817051 92.67477827 97 101 C97.44214844 101.84046875 97.88429688 102.6809375 98.33984375 103.546875 C106.9804849 118.96120436 120.37261035 129.36172292 137 135 C137.9075 135.31839844 138.815 135.63679687 139.75 135.96484375 C158.01302787 141.46911743 177.05693997 137.85926581 193.640625 129.1171875 C199.46998534 125.44333482 204.1992619 120.90837797 209 116 C209.66644531 115.36578125 210.33289063 114.7315625 211.01953125 114.078125 C222.92745629 101.92827823 228 83.54813701 228 67 C226.70935011 48.507407 220.06876319 33.11126323 207 20 C206.23816406 19.21496094 205.47632813 18.42992187 204.69140625 17.62109375 C191.55664539 4.87455242 174.08940679 -0.6871103 156.05908203 -0.47070312 C137.16570857 0.24758893 118.70271456 8.64530394 106.30859375 23.04296875 Z " fill="#000000" transform="translate(202,187)"/>
</svg>
