<?xml version="1.0" encoding="UTF-8"?>
<svg version="1.1" xmlns="http://www.w3.org/2000/svg" width="512" height="512">
<path d="M0 0 C2.4130132 2.89087946 2.53861611 6.60955893 3.08056641 10.23144531 C3.21011719 10.99263672 3.33966797 11.75382812 3.47314453 12.53808594 C4.40936349 18.42784433 4.39306641 23.56424083 4.39306641 29.66894531 C13.96306641 29.66894531 23.53306641 29.66894531 33.39306641 29.66894531 C33.39306641 26.36894531 33.39306641 23.06894531 33.39306641 19.66894531 C33.75809361 16.48207662 34.1689059 13.38465954 34.70556641 10.23144531 C34.82351563 9.44318359 34.94146484 8.65492188 35.06298828 7.84277344 C35.73534951 3.79136602 36.20133381 1.29910251 39.39306641 -1.33105469 C85.27002537 -20.92038978 143.16503894 -19.59837013 190.46826172 -7.09863281 C192.35018724 -6.60474518 194.23741707 -6.1304348 196.13037109 -5.68066406 C201.2854375 -4.44533054 205.89937492 -3.19900301 210.39306641 -0.33105469 C212.77526684 3.95690609 213.18464657 7.82169544 213.39306641 12.66894531 C213.61182292 14.08725677 213.83911442 15.50432072 214.08056641 16.91894531 C214.31982399 19.79003634 214.42574916 22.53103233 214.41259766 25.40332031 C214.40836792 26.60553223 214.40836792 26.60553223 214.40405273 27.83203125 C214.40042725 28.43821289 214.39680176 29.04439453 214.39306641 29.66894531 C216.27251953 29.59933594 216.27251953 29.59933594 218.18994141 29.52832031 C219.84095922 29.49079718 221.49200283 29.4543976 223.14306641 29.41894531 C223.96806641 29.38542969 224.79306641 29.35191406 225.64306641 29.31738281 C231.74400229 29.21898062 231.74400229 29.21898062 234.93994141 31.43457031 C236.46053576 33.77268852 236.93613714 34.91241819 236.89306641 37.66894531 C236.90853516 38.65894531 236.90853516 38.65894531 236.92431641 39.66894531 C236.10501372 42.75337897 235.01014533 43.83211352 232.39306641 45.66894531 C229.45873157 46.14905498 226.60616424 46.04670741 223.64306641 45.91894531 C222.85029297 45.90089844 222.05751953 45.88285156 221.24072266 45.86425781 C219.29098293 45.81727613 217.34186763 45.74553575 215.39306641 45.66894531 C215.35866455 46.29534912 215.3242627 46.92175293 215.28881836 47.56713867 C213.68790474 74.93159241 208.08780376 100.08614858 198.39306641 125.66894531 C197.89830811 127.159021 197.89830811 127.159021 197.39355469 128.67919922 C195.88765278 132.55022424 194.82328662 135.02028097 190.93896484 136.78198242 C187.70349037 137.52018629 184.57473934 137.88619381 181.26806641 138.16894531 C180.05626709 138.30655273 178.84446777 138.44416016 177.59594727 138.5859375 C173.53135424 139.0176483 169.46857506 139.36214085 165.39306641 139.66894531 C164.65344666 139.72526123 163.9138269 139.78157715 163.15179443 139.83959961 C142.21477024 141.40533946 121.49717638 142.06471256 100.51806641 140.85644531 C99.37635483 140.79166992 99.37635483 140.79166992 98.21157837 140.72558594 C88.4634505 140.16199378 78.76770129 139.43140291 69.08056641 138.16894531 C68.17000488 138.05059326 67.25944336 137.93224121 66.32128906 137.81030273 C63.99905044 137.48126316 61.69927767 137.09448164 59.39306641 136.66894531 C58.28447266 136.47558594 57.17587891 136.28222656 56.03369141 136.08300781 C51.96796284 133.90579814 51.05247385 130.73095873 49.45556641 126.54394531 C49.12202148 125.70718262 48.78847656 124.87041992 48.44482422 124.00830078 C38.55648652 98.45485289 34.21738497 72.88169727 32.39306641 45.66894531 C23.48306641 45.66894531 14.57306641 45.66894531 5.39306641 45.66894531 C5.31056641 47.97894531 5.22806641 50.28894531 5.14306641 52.66894531 C3.8825025 77.03176705 -2.218907 100.82365574 -10.84716797 123.55175781 C-11.70777441 125.85402316 -11.70777441 125.85402316 -12.49755859 129.04394531 C-13.48140767 132.1207097 -14.12132609 133.5865375 -16.60693359 135.66894531 C-22.00855686 137.35278467 -27.30512338 137.98039436 -32.92919922 138.4453125 C-35.53233713 138.66271534 -38.1213109 138.94106246 -40.71630859 139.23925781 C-69.70739135 142.45127518 -98.58123911 141.87901154 -127.60693359 139.66894531 C-128.32077209 139.61520752 -129.0346106 139.56146973 -129.77008057 139.50610352 C-134.35252562 139.15053119 -138.9145008 138.68760599 -143.48193359 138.16894531 C-144.63894775 138.07000977 -145.79596191 137.97107422 -146.98803711 137.86914062 C-154.51871907 136.89421416 -154.51871907 136.89421416 -157.28759766 133.77661133 C-158.69321682 131.12574384 -159.66136769 128.5167293 -160.60693359 125.66894531 C-161.01024902 124.60466309 -161.41356445 123.54038086 -161.82910156 122.44384766 C-171.17456438 97.32144378 -176.13588214 72.45448399 -177.60693359 45.66894531 C-179.26982422 45.73855469 -179.26982422 45.73855469 -180.96630859 45.80957031 C-182.42982327 45.84709633 -183.89336715 45.88349561 -185.35693359 45.91894531 C-186.08654297 45.95246094 -186.81615234 45.98597656 -187.56787109 46.02050781 C-191.09520379 46.08464113 -193.17835269 45.97353425 -196.09130859 43.90332031 C-197.68208523 41.55815475 -198.15062188 40.46499551 -198.10693359 37.66894531 C-198.11724609 37.00894531 -198.12755859 36.34894531 -198.13818359 35.66894531 C-197.3188809 32.58451166 -196.22401252 31.50577711 -193.60693359 29.66894531 C-190.67259876 29.18883565 -187.82003142 29.29118322 -184.85693359 29.41894531 C-184.06416016 29.43699219 -183.27138672 29.45503906 -182.45458984 29.47363281 C-180.50485012 29.52061449 -178.55573481 29.59235487 -176.60693359 29.66894531 C-176.66880859 28.36957031 -176.73068359 27.07019531 -176.79443359 25.73144531 C-176.8190479 17.16566719 -175.31474656 7.79238422 -172.60693359 -0.33105469 C-170.93066406 -1.23486328 -170.93066406 -1.23486328 -168.72412109 -1.97949219 C-167.4861377 -2.40053223 -167.4861377 -2.40053223 -166.22314453 -2.83007812 C-165.31854492 -3.11915039 -164.41394531 -3.40822266 -163.48193359 -3.70605469 C-162.54124023 -4.0105957 -161.60054687 -4.31513672 -160.63134766 -4.62890625 C-120.9734417 -17.09656528 -35.47163905 -29.38185598 0 0 Z M-143.60693359 7.66894531 C-144.41001953 7.84184082 -145.21310547 8.01473633 -146.04052734 8.19287109 C-148.04893959 8.63277066 -150.04741415 9.11742108 -152.04443359 9.60644531 C-153.09501953 9.86296875 -154.14560547 10.11949219 -155.22802734 10.38378906 C-157.8381096 11.49589838 -157.8381096 11.49589838 -158.89208984 14.29785156 C-160.77103348 23.15866226 -160.84923714 31.88304495 -160.85693359 40.91894531 C-160.85760834 41.63103149 -160.85828308 42.34311768 -160.85897827 43.07678223 C-160.84133043 54.83255436 -160.11638606 66.16041187 -157.60693359 77.66894531 C-157.43000977 78.48717773 -157.25308594 79.30541016 -157.07080078 80.1484375 C-154.38192085 92.24607518 -150.78030399 104.00553772 -146.60693359 115.66894531 C-146.31560547 116.63574219 -146.02427734 117.60253906 -145.72412109 118.59863281 C-144.79472665 120.83614837 -144.79472665 120.83614837 -142.59521484 121.52441406 C-123.75729256 123.86196646 -105.02589615 125.04452257 -86.04443359 124.98144531 C-85.01241821 124.98095184 -83.98040283 124.98045837 -82.91711426 124.97994995 C-65.72637614 124.95491811 -48.61746205 124.37331376 -31.60693359 121.66894531 C-30.87812988 121.57154053 -30.14932617 121.47413574 -29.3984375 121.3737793 C-27.45966462 120.81526582 -27.45966462 120.81526582 -26.51367188 118.93261719 C-26.23765137 118.17529297 -25.96163086 117.41796875 -25.67724609 116.63769531 C-25.20085693 115.34605469 -25.20085693 115.34605469 -24.71484375 114.02832031 C-24.3904834 113.08472656 -24.06612305 112.14113281 -23.73193359 111.16894531 C-23.21638916 109.70714844 -23.21638916 109.70714844 -22.69042969 108.21582031 C-13.57857517 81.56100319 -8.91966287 53.68743146 -11.41943359 25.54394531 C-11.5427002 24.14885742 -11.5427002 24.14885742 -11.66845703 22.72558594 C-12.20953991 16.91491589 -12.20953991 16.91491589 -14.60693359 11.66894531 C-17.2585735 10.61927428 -19.67172659 9.85245307 -22.41943359 9.16894531 C-23.21696045 8.96100342 -24.0144873 8.75306152 -24.83618164 8.53881836 C-64.68949463 -1.57022055 -103.59600332 -1.31094084 -143.60693359 7.66894531 Z M66.39306641 7.66894531 C65.58998047 7.8471582 64.78689453 8.02537109 63.95947266 8.20898438 C58.01701916 9.4814758 58.01701916 9.4814758 52.39306641 11.66894531 C42.35192281 28.27193047 49.36367046 65.00665018 53.39306641 82.66894531 C53.6739209 83.92916504 53.6739209 83.92916504 53.96044922 85.21484375 C56.7432406 97.40818008 60.86824056 109.02436467 65.39306641 120.66894531 C84.44427331 124.52015703 104.01936045 125.04752879 123.39306641 124.98144531 C124.39979401 124.98095184 125.40652161 124.98045837 126.4437561 124.97994995 C143.83709688 124.95402075 161.17158361 124.29143093 178.39306641 121.66894531 C179.12710693 121.57154053 179.86114746 121.47413574 180.61743164 121.3737793 C182.54126375 120.81221709 182.54126375 120.81221709 183.48632812 118.93261719 C183.76234863 118.17529297 184.03836914 117.41796875 184.32275391 116.63769531 C184.64034668 115.77668213 184.95793945 114.91566895 185.28515625 114.02856445 C185.6095166 113.08489014 185.93387695 112.14121582 186.26806641 111.16894531 C186.78361084 109.70606079 186.78361084 109.70606079 187.30957031 108.21362305 C189.83873483 100.81097561 191.92284289 93.33148152 193.76806641 85.73144531 C194.12553955 84.26191406 194.12553955 84.26191406 194.49023438 82.76269531 C197.53054472 69.57411439 198.72962034 56.67373134 198.65380859 43.18798828 C198.64300813 40.90663505 198.65382172 38.62605744 198.66650391 36.34472656 C199.04890201 24.25577697 199.04890201 24.25577697 196.39306641 12.66894531 C193.67181292 10.75883469 192.51234896 10.32036445 189.39306641 9.66894531 C188.48041016 9.42644043 187.56775391 9.18393555 186.62744141 8.93408203 C183.39486487 8.09363264 180.15136858 7.34062165 176.89306641 6.60644531 C175.15246948 6.21066284 175.15246948 6.21066284 173.37670898 5.80688477 C165.0684647 3.9562882 156.87456252 2.46635093 148.39306641 1.66894531 C147.40951172 1.559375 146.42595703 1.44980469 145.41259766 1.33691406 C118.64536506 -1.26016543 92.49660424 1.76895668 66.39306641 7.66894531 Z " fill="#000000" transform="translate(236.60693359375,218.3310546875)"/>
</svg>
